ISO-10303-21;
HEADER;
FILE_DESCRIPTION(('FreeCAD Model'),'2;1');
FILE_NAME('Open CASCADE Shape Model','1970-01-01T00:00:00',('FreeCAD'),(
    'FreeCAD'),'Open CASCADE STEP processor 7.8','FreeCAD','Unknown');
FILE_SCHEMA(('AUTOMOTIVE_DESIGN { 1 0 10303 214 1 1 1 1 }'));
ENDSEC;
DATA;
#1 = APPLICATION_PROTOCOL_DEFINITION('international standard',
  'automotive_design',2000,#2);
#2 = APPLICATION_CONTEXT(
  'core data for automotive mechanical design processes');
#3 = SHAPE_DEFINITION_REPRESENTATION(#4,#10);
#4 = PRODUCT_DEFINITION_SHAPE('','',#5);
#5 = PRODUCT_DEFINITION('design','',#6,#9);
#6 = PRODUCT_DEFINITION_FORMATION('','',#7);
#7 = PRODUCT('Open CASCADE STEP translator 7.8 2',
  'Open CASCADE STEP translator 7.8 2','',(#8));
#8 = PRODUCT_CONTEXT('',#2,'mechanical');
#9 = PRODUCT_DEFINITION_CONTEXT('part definition',#2,'design');
#10 = SHAPE_REPRESENTATION('',(#11,#15,#204,#393,#582,#771,#960,#1149,
    #1338),#1527);
#11 = AXIS2_PLACEMENT_3D('',#12,#13,#14);
#12 = CARTESIAN_POINT('',(0.,0.,0.));
#13 = DIRECTION('',(0.,0.,1.));
#14 = DIRECTION('',(1.,0.,-0.));
#15 = MANIFOLD_SOLID_BREP('',#16);
#16 = CLOSED_SHELL('',(#17,#57,#99,#123,#158,#175,#187));
#17 = ADVANCED_FACE('',(#18),#52,.F.);
#18 = FACE_BOUND('',#19,.F.);
#19 = EDGE_LOOP('',(#20,#30,#38,#46));
#20 = ORIENTED_EDGE('',*,*,#21,.F.);
#21 = EDGE_CURVE('',#22,#24,#26,.T.);
#22 = VERTEX_POINT('',#23);
#23 = CARTESIAN_POINT('',(-119.,171.8,10.));
#24 = VERTEX_POINT('',#25);
#25 = CARTESIAN_POINT('',(-119.,171.8,28.));
#26 = LINE('',#27,#28);
#27 = CARTESIAN_POINT('',(-119.,171.8,10.));
#28 = VECTOR('',#29,1.);
#29 = DIRECTION('',(0.,0.,1.));
#30 = ORIENTED_EDGE('',*,*,#31,.T.);
#31 = EDGE_CURVE('',#22,#32,#34,.T.);
#32 = VERTEX_POINT('',#33);
#33 = CARTESIAN_POINT('',(-119.,173.,10.));
#34 = LINE('',#35,#36);
#35 = CARTESIAN_POINT('',(-119.,171.8,10.));
#36 = VECTOR('',#37,1.);
#37 = DIRECTION('',(-0.,1.,0.));
#38 = ORIENTED_EDGE('',*,*,#39,.T.);
#39 = EDGE_CURVE('',#32,#40,#42,.T.);
#40 = VERTEX_POINT('',#41);
#41 = CARTESIAN_POINT('',(-119.,173.,28.));
#42 = LINE('',#43,#44);
#43 = CARTESIAN_POINT('',(-119.,173.,10.));
#44 = VECTOR('',#45,1.);
#45 = DIRECTION('',(0.,0.,1.));
#46 = ORIENTED_EDGE('',*,*,#47,.F.);
#47 = EDGE_CURVE('',#24,#40,#48,.T.);
#48 = LINE('',#49,#50);
#49 = CARTESIAN_POINT('',(-119.,171.8,28.));
#50 = VECTOR('',#51,1.);
#51 = DIRECTION('',(-0.,1.,0.));
#52 = PLANE('',#53);
#53 = AXIS2_PLACEMENT_3D('',#54,#55,#56);
#54 = CARTESIAN_POINT('',(-119.,171.8,10.));
#55 = DIRECTION('',(1.,0.,-0.));
#56 = DIRECTION('',(0.,0.,1.));
#57 = ADVANCED_FACE('',(#58,#83),#94,.F.);
#58 = FACE_BOUND('',#59,.F.);
#59 = EDGE_LOOP('',(#60,#68,#69,#77));
#60 = ORIENTED_EDGE('',*,*,#61,.F.);
#61 = EDGE_CURVE('',#22,#62,#64,.T.);
#62 = VERTEX_POINT('',#63);
#63 = CARTESIAN_POINT('',(-107.,171.8,10.));
#64 = LINE('',#65,#66);
#65 = CARTESIAN_POINT('',(-119.,171.8,10.));
#66 = VECTOR('',#67,1.);
#67 = DIRECTION('',(1.,0.,-0.));
#68 = ORIENTED_EDGE('',*,*,#21,.T.);
#69 = ORIENTED_EDGE('',*,*,#70,.T.);
#70 = EDGE_CURVE('',#24,#71,#73,.T.);
#71 = VERTEX_POINT('',#72);
#72 = CARTESIAN_POINT('',(-107.,171.8,28.));
#73 = LINE('',#74,#75);
#74 = CARTESIAN_POINT('',(-119.,171.8,28.));
#75 = VECTOR('',#76,1.);
#76 = DIRECTION('',(1.,0.,-0.));
#77 = ORIENTED_EDGE('',*,*,#78,.F.);
#78 = EDGE_CURVE('',#62,#71,#79,.T.);
#79 = LINE('',#80,#81);
#80 = CARTESIAN_POINT('',(-107.,171.8,10.));
#81 = VECTOR('',#82,1.);
#82 = DIRECTION('',(0.,0.,1.));
#83 = FACE_BOUND('',#84,.F.);
#84 = EDGE_LOOP('',(#85));
#85 = ORIENTED_EDGE('',*,*,#86,.F.);
#86 = EDGE_CURVE('',#87,#87,#89,.T.);
#87 = VERTEX_POINT('',#88);
#88 = CARTESIAN_POINT('',(-113.,171.8,17.5));
#89 = CIRCLE('',#90,2.);
#90 = AXIS2_PLACEMENT_3D('',#91,#92,#93);
#91 = CARTESIAN_POINT('',(-113.,171.8,15.5));
#92 = DIRECTION('',(0.,1.,0.));
#93 = DIRECTION('',(0.,-0.,1.));
#94 = PLANE('',#95);
#95 = AXIS2_PLACEMENT_3D('',#96,#97,#98);
#96 = CARTESIAN_POINT('',(-119.,171.8,10.));
#97 = DIRECTION('',(-0.,1.,0.));
#98 = DIRECTION('',(0.,0.,1.));
#99 = ADVANCED_FACE('',(#100),#118,.T.);
#100 = FACE_BOUND('',#101,.T.);
#101 = EDGE_LOOP('',(#102,#103,#104,#112));
#102 = ORIENTED_EDGE('',*,*,#47,.F.);
#103 = ORIENTED_EDGE('',*,*,#70,.T.);
#104 = ORIENTED_EDGE('',*,*,#105,.T.);
#105 = EDGE_CURVE('',#71,#106,#108,.T.);
#106 = VERTEX_POINT('',#107);
#107 = CARTESIAN_POINT('',(-107.,173.,28.));
#108 = LINE('',#109,#110);
#109 = CARTESIAN_POINT('',(-107.,171.8,28.));
#110 = VECTOR('',#111,1.);
#111 = DIRECTION('',(-0.,1.,0.));
#112 = ORIENTED_EDGE('',*,*,#113,.F.);
#113 = EDGE_CURVE('',#40,#106,#114,.T.);
#114 = LINE('',#115,#116);
#115 = CARTESIAN_POINT('',(-119.,173.,28.));
#116 = VECTOR('',#117,1.);
#117 = DIRECTION('',(1.,0.,-0.));
#118 = PLANE('',#119);
#119 = AXIS2_PLACEMENT_3D('',#120,#121,#122);
#120 = CARTESIAN_POINT('',(-119.,171.8,28.));
#121 = DIRECTION('',(0.,0.,1.));
#122 = DIRECTION('',(1.,0.,-0.));
#123 = ADVANCED_FACE('',(#124,#142),#153,.T.);
#124 = FACE_BOUND('',#125,.T.);
#125 = EDGE_LOOP('',(#126,#134,#135,#136));
#126 = ORIENTED_EDGE('',*,*,#127,.F.);
#127 = EDGE_CURVE('',#32,#128,#130,.T.);
#128 = VERTEX_POINT('',#129);
#129 = CARTESIAN_POINT('',(-107.,173.,10.));
#130 = LINE('',#131,#132);
#131 = CARTESIAN_POINT('',(-119.,173.,10.));
#132 = VECTOR('',#133,1.);
#133 = DIRECTION('',(1.,0.,-0.));
#134 = ORIENTED_EDGE('',*,*,#39,.T.);
#135 = ORIENTED_EDGE('',*,*,#113,.T.);
#136 = ORIENTED_EDGE('',*,*,#137,.F.);
#137 = EDGE_CURVE('',#128,#106,#138,.T.);
#138 = LINE('',#139,#140);
#139 = CARTESIAN_POINT('',(-107.,173.,10.));
#140 = VECTOR('',#141,1.);
#141 = DIRECTION('',(0.,0.,1.));
#142 = FACE_BOUND('',#143,.T.);
#143 = EDGE_LOOP('',(#144));
#144 = ORIENTED_EDGE('',*,*,#145,.F.);
#145 = EDGE_CURVE('',#146,#146,#148,.T.);
#146 = VERTEX_POINT('',#147);
#147 = CARTESIAN_POINT('',(-113.,173.,17.5));
#148 = CIRCLE('',#149,2.);
#149 = AXIS2_PLACEMENT_3D('',#150,#151,#152);
#150 = CARTESIAN_POINT('',(-113.,173.,15.5));
#151 = DIRECTION('',(0.,1.,0.));
#152 = DIRECTION('',(0.,-0.,1.));
#153 = PLANE('',#154);
#154 = AXIS2_PLACEMENT_3D('',#155,#156,#157);
#155 = CARTESIAN_POINT('',(-119.,173.,10.));
#156 = DIRECTION('',(-0.,1.,0.));
#157 = DIRECTION('',(0.,0.,1.));
#158 = ADVANCED_FACE('',(#159),#170,.F.);
#159 = FACE_BOUND('',#160,.F.);
#160 = EDGE_LOOP('',(#161,#162,#163,#169));
#161 = ORIENTED_EDGE('',*,*,#31,.F.);
#162 = ORIENTED_EDGE('',*,*,#61,.T.);
#163 = ORIENTED_EDGE('',*,*,#164,.T.);
#164 = EDGE_CURVE('',#62,#128,#165,.T.);
#165 = LINE('',#166,#167);
#166 = CARTESIAN_POINT('',(-107.,171.8,10.));
#167 = VECTOR('',#168,1.);
#168 = DIRECTION('',(-0.,1.,0.));
#169 = ORIENTED_EDGE('',*,*,#127,.F.);
#170 = PLANE('',#171);
#171 = AXIS2_PLACEMENT_3D('',#172,#173,#174);
#172 = CARTESIAN_POINT('',(-119.,171.8,10.));
#173 = DIRECTION('',(0.,0.,1.));
#174 = DIRECTION('',(1.,0.,-0.));
#175 = ADVANCED_FACE('',(#176),#182,.T.);
#176 = FACE_BOUND('',#177,.T.);
#177 = EDGE_LOOP('',(#178,#179,#180,#181));
#178 = ORIENTED_EDGE('',*,*,#78,.F.);
#179 = ORIENTED_EDGE('',*,*,#164,.T.);
#180 = ORIENTED_EDGE('',*,*,#137,.T.);
#181 = ORIENTED_EDGE('',*,*,#105,.F.);
#182 = PLANE('',#183);
#183 = AXIS2_PLACEMENT_3D('',#184,#185,#186);
#184 = CARTESIAN_POINT('',(-107.,171.8,10.));
#185 = DIRECTION('',(1.,0.,-0.));
#186 = DIRECTION('',(0.,0.,1.));
#187 = ADVANCED_FACE('',(#188),#199,.F.);
#188 = FACE_BOUND('',#189,.F.);
#189 = EDGE_LOOP('',(#190,#191,#197,#198));
#190 = ORIENTED_EDGE('',*,*,#145,.F.);
#191 = ORIENTED_EDGE('',*,*,#192,.F.);
#192 = EDGE_CURVE('',#87,#146,#193,.T.);
#193 = LINE('',#194,#195);
#194 = CARTESIAN_POINT('',(-113.,169.,17.5));
#195 = VECTOR('',#196,1.);
#196 = DIRECTION('',(0.,1.,0.));
#197 = ORIENTED_EDGE('',*,*,#86,.T.);
#198 = ORIENTED_EDGE('',*,*,#192,.T.);
#199 = CYLINDRICAL_SURFACE('',#200,2.);
#200 = AXIS2_PLACEMENT_3D('',#201,#202,#203);
#201 = CARTESIAN_POINT('',(-113.,169.,15.5));
#202 = DIRECTION('',(0.,1.,0.));
#203 = DIRECTION('',(0.,-0.,1.));
#204 = MANIFOLD_SOLID_BREP('',#205);
#205 = CLOSED_SHELL('',(#206,#246,#288,#312,#347,#364,#376));
#206 = ADVANCED_FACE('',(#207),#241,.F.);
#207 = FACE_BOUND('',#208,.F.);
#208 = EDGE_LOOP('',(#209,#219,#227,#235));
#209 = ORIENTED_EDGE('',*,*,#210,.F.);
#210 = EDGE_CURVE('',#211,#213,#215,.T.);
#211 = VERTEX_POINT('',#212);
#212 = CARTESIAN_POINT('',(-171.8,-119.,10.));
#213 = VERTEX_POINT('',#214);
#214 = CARTESIAN_POINT('',(-171.8,-119.,28.));
#215 = LINE('',#216,#217);
#216 = CARTESIAN_POINT('',(-171.8,-119.,10.));
#217 = VECTOR('',#218,1.);
#218 = DIRECTION('',(0.,0.,1.));
#219 = ORIENTED_EDGE('',*,*,#220,.T.);
#220 = EDGE_CURVE('',#211,#221,#223,.T.);
#221 = VERTEX_POINT('',#222);
#222 = CARTESIAN_POINT('',(-173.,-119.,10.));
#223 = LINE('',#224,#225);
#224 = CARTESIAN_POINT('',(-171.8,-119.,10.));
#225 = VECTOR('',#226,1.);
#226 = DIRECTION('',(-1.,1.110223024625E-16,0.));
#227 = ORIENTED_EDGE('',*,*,#228,.T.);
#228 = EDGE_CURVE('',#221,#229,#231,.T.);
#229 = VERTEX_POINT('',#230);
#230 = CARTESIAN_POINT('',(-173.,-119.,28.));
#231 = LINE('',#232,#233);
#232 = CARTESIAN_POINT('',(-173.,-119.,10.));
#233 = VECTOR('',#234,1.);
#234 = DIRECTION('',(0.,0.,1.));
#235 = ORIENTED_EDGE('',*,*,#236,.F.);
#236 = EDGE_CURVE('',#213,#229,#237,.T.);
#237 = LINE('',#238,#239);
#238 = CARTESIAN_POINT('',(-171.8,-119.,28.));
#239 = VECTOR('',#240,1.);
#240 = DIRECTION('',(-1.,1.110223024625E-16,0.));
#241 = PLANE('',#242);
#242 = AXIS2_PLACEMENT_3D('',#243,#244,#245);
#243 = CARTESIAN_POINT('',(-171.8,-119.,10.));
#244 = DIRECTION('',(1.110223024625E-16,1.,0.));
#245 = DIRECTION('',(0.,0.,1.));
#246 = ADVANCED_FACE('',(#247,#272),#283,.F.);
#247 = FACE_BOUND('',#248,.F.);
#248 = EDGE_LOOP('',(#249,#257,#258,#266));
#249 = ORIENTED_EDGE('',*,*,#250,.F.);
#250 = EDGE_CURVE('',#211,#251,#253,.T.);
#251 = VERTEX_POINT('',#252);
#252 = CARTESIAN_POINT('',(-171.8,-107.,10.));
#253 = LINE('',#254,#255);
#254 = CARTESIAN_POINT('',(-171.8,-119.,10.));
#255 = VECTOR('',#256,1.);
#256 = DIRECTION('',(1.110223024625E-16,1.,0.));
#257 = ORIENTED_EDGE('',*,*,#210,.T.);
#258 = ORIENTED_EDGE('',*,*,#259,.T.);
#259 = EDGE_CURVE('',#213,#260,#262,.T.);
#260 = VERTEX_POINT('',#261);
#261 = CARTESIAN_POINT('',(-171.8,-107.,28.));
#262 = LINE('',#263,#264);
#263 = CARTESIAN_POINT('',(-171.8,-119.,28.));
#264 = VECTOR('',#265,1.);
#265 = DIRECTION('',(1.110223024625E-16,1.,0.));
#266 = ORIENTED_EDGE('',*,*,#267,.F.);
#267 = EDGE_CURVE('',#251,#260,#268,.T.);
#268 = LINE('',#269,#270);
#269 = CARTESIAN_POINT('',(-171.8,-107.,10.));
#270 = VECTOR('',#271,1.);
#271 = DIRECTION('',(0.,0.,1.));
#272 = FACE_BOUND('',#273,.F.);
#273 = EDGE_LOOP('',(#274));
#274 = ORIENTED_EDGE('',*,*,#275,.F.);
#275 = EDGE_CURVE('',#276,#276,#278,.T.);
#276 = VERTEX_POINT('',#277);
#277 = CARTESIAN_POINT('',(-171.8,-113.,17.5));
#278 = CIRCLE('',#279,2.);
#279 = AXIS2_PLACEMENT_3D('',#280,#281,#282);
#280 = CARTESIAN_POINT('',(-171.8,-113.,15.5));
#281 = DIRECTION('',(-1.,1.110223024625E-16,0.));
#282 = DIRECTION('',(0.,0.,1.));
#283 = PLANE('',#284);
#284 = AXIS2_PLACEMENT_3D('',#285,#286,#287);
#285 = CARTESIAN_POINT('',(-171.8,-119.,10.));
#286 = DIRECTION('',(-1.,1.110223024625E-16,0.));
#287 = DIRECTION('',(0.,0.,1.));
#288 = ADVANCED_FACE('',(#289),#307,.T.);
#289 = FACE_BOUND('',#290,.T.);
#290 = EDGE_LOOP('',(#291,#292,#293,#301));
#291 = ORIENTED_EDGE('',*,*,#236,.F.);
#292 = ORIENTED_EDGE('',*,*,#259,.T.);
#293 = ORIENTED_EDGE('',*,*,#294,.T.);
#294 = EDGE_CURVE('',#260,#295,#297,.T.);
#295 = VERTEX_POINT('',#296);
#296 = CARTESIAN_POINT('',(-173.,-107.,28.));
#297 = LINE('',#298,#299);
#298 = CARTESIAN_POINT('',(-171.8,-107.,28.));
#299 = VECTOR('',#300,1.);
#300 = DIRECTION('',(-1.,1.110223024625E-16,0.));
#301 = ORIENTED_EDGE('',*,*,#302,.F.);
#302 = EDGE_CURVE('',#229,#295,#303,.T.);
#303 = LINE('',#304,#305);
#304 = CARTESIAN_POINT('',(-173.,-119.,28.));
#305 = VECTOR('',#306,1.);
#306 = DIRECTION('',(1.110223024625E-16,1.,0.));
#307 = PLANE('',#308);
#308 = AXIS2_PLACEMENT_3D('',#309,#310,#311);
#309 = CARTESIAN_POINT('',(-171.8,-119.,28.));
#310 = DIRECTION('',(0.,0.,1.));
#311 = DIRECTION('',(1.110223024625E-16,1.,0.));
#312 = ADVANCED_FACE('',(#313,#331),#342,.T.);
#313 = FACE_BOUND('',#314,.T.);
#314 = EDGE_LOOP('',(#315,#323,#324,#325));
#315 = ORIENTED_EDGE('',*,*,#316,.F.);
#316 = EDGE_CURVE('',#221,#317,#319,.T.);
#317 = VERTEX_POINT('',#318);
#318 = CARTESIAN_POINT('',(-173.,-107.,10.));
#319 = LINE('',#320,#321);
#320 = CARTESIAN_POINT('',(-173.,-119.,10.));
#321 = VECTOR('',#322,1.);
#322 = DIRECTION('',(1.110223024625E-16,1.,0.));
#323 = ORIENTED_EDGE('',*,*,#228,.T.);
#324 = ORIENTED_EDGE('',*,*,#302,.T.);
#325 = ORIENTED_EDGE('',*,*,#326,.F.);
#326 = EDGE_CURVE('',#317,#295,#327,.T.);
#327 = LINE('',#328,#329);
#328 = CARTESIAN_POINT('',(-173.,-107.,10.));
#329 = VECTOR('',#330,1.);
#330 = DIRECTION('',(0.,0.,1.));
#331 = FACE_BOUND('',#332,.T.);
#332 = EDGE_LOOP('',(#333));
#333 = ORIENTED_EDGE('',*,*,#334,.F.);
#334 = EDGE_CURVE('',#335,#335,#337,.T.);
#335 = VERTEX_POINT('',#336);
#336 = CARTESIAN_POINT('',(-173.,-113.,17.5));
#337 = CIRCLE('',#338,2.);
#338 = AXIS2_PLACEMENT_3D('',#339,#340,#341);
#339 = CARTESIAN_POINT('',(-173.,-113.,15.5));
#340 = DIRECTION('',(-1.,1.110223024625E-16,0.));
#341 = DIRECTION('',(0.,0.,1.));
#342 = PLANE('',#343);
#343 = AXIS2_PLACEMENT_3D('',#344,#345,#346);
#344 = CARTESIAN_POINT('',(-173.,-119.,10.));
#345 = DIRECTION('',(-1.,1.110223024625E-16,0.));
#346 = DIRECTION('',(0.,0.,1.));
#347 = ADVANCED_FACE('',(#348),#359,.F.);
#348 = FACE_BOUND('',#349,.F.);
#349 = EDGE_LOOP('',(#350,#351,#352,#358));
#350 = ORIENTED_EDGE('',*,*,#220,.F.);
#351 = ORIENTED_EDGE('',*,*,#250,.T.);
#352 = ORIENTED_EDGE('',*,*,#353,.T.);
#353 = EDGE_CURVE('',#251,#317,#354,.T.);
#354 = LINE('',#355,#356);
#355 = CARTESIAN_POINT('',(-171.8,-107.,10.));
#356 = VECTOR('',#357,1.);
#357 = DIRECTION('',(-1.,1.110223024625E-16,0.));
#358 = ORIENTED_EDGE('',*,*,#316,.F.);
#359 = PLANE('',#360);
#360 = AXIS2_PLACEMENT_3D('',#361,#362,#363);
#361 = CARTESIAN_POINT('',(-171.8,-119.,10.));
#362 = DIRECTION('',(0.,0.,1.));
#363 = DIRECTION('',(1.110223024625E-16,1.,0.));
#364 = ADVANCED_FACE('',(#365),#371,.T.);
#365 = FACE_BOUND('',#366,.T.);
#366 = EDGE_LOOP('',(#367,#368,#369,#370));
#367 = ORIENTED_EDGE('',*,*,#267,.F.);
#368 = ORIENTED_EDGE('',*,*,#353,.T.);
#369 = ORIENTED_EDGE('',*,*,#326,.T.);
#370 = ORIENTED_EDGE('',*,*,#294,.F.);
#371 = PLANE('',#372);
#372 = AXIS2_PLACEMENT_3D('',#373,#374,#375);
#373 = CARTESIAN_POINT('',(-171.8,-107.,10.));
#374 = DIRECTION('',(1.110223024625E-16,1.,0.));
#375 = DIRECTION('',(0.,0.,1.));
#376 = ADVANCED_FACE('',(#377),#388,.F.);
#377 = FACE_BOUND('',#378,.F.);
#378 = EDGE_LOOP('',(#379,#380,#386,#387));
#379 = ORIENTED_EDGE('',*,*,#334,.F.);
#380 = ORIENTED_EDGE('',*,*,#381,.F.);
#381 = EDGE_CURVE('',#276,#335,#382,.T.);
#382 = LINE('',#383,#384);
#383 = CARTESIAN_POINT('',(-169.,-113.,17.5));
#384 = VECTOR('',#385,1.);
#385 = DIRECTION('',(-1.,1.110223024625E-16,0.));
#386 = ORIENTED_EDGE('',*,*,#275,.T.);
#387 = ORIENTED_EDGE('',*,*,#381,.T.);
#388 = CYLINDRICAL_SURFACE('',#389,2.);
#389 = AXIS2_PLACEMENT_3D('',#390,#391,#392);
#390 = CARTESIAN_POINT('',(-169.,-113.,15.5));
#391 = DIRECTION('',(-1.,1.110223024625E-16,0.));
#392 = DIRECTION('',(0.,0.,1.));
#393 = MANIFOLD_SOLID_BREP('',#394);
#394 = CLOSED_SHELL('',(#395,#435,#477,#501,#536,#553,#565));
#395 = ADVANCED_FACE('',(#396),#430,.F.);
#396 = FACE_BOUND('',#397,.F.);
#397 = EDGE_LOOP('',(#398,#408,#416,#424));
#398 = ORIENTED_EDGE('',*,*,#399,.F.);
#399 = EDGE_CURVE('',#400,#402,#404,.T.);
#400 = VERTEX_POINT('',#401);
#401 = CARTESIAN_POINT('',(119.,-171.8,10.));
#402 = VERTEX_POINT('',#403);
#403 = CARTESIAN_POINT('',(119.,-171.8,28.));
#404 = LINE('',#405,#406);
#405 = CARTESIAN_POINT('',(119.,-171.8,10.));
#406 = VECTOR('',#407,1.);
#407 = DIRECTION('',(0.,0.,1.));
#408 = ORIENTED_EDGE('',*,*,#409,.T.);
#409 = EDGE_CURVE('',#400,#410,#412,.T.);
#410 = VERTEX_POINT('',#411);
#411 = CARTESIAN_POINT('',(119.,-173.,10.));
#412 = LINE('',#413,#414);
#413 = CARTESIAN_POINT('',(119.,-171.8,10.));
#414 = VECTOR('',#415,1.);
#415 = DIRECTION('',(-1.224646799147E-16,-1.,0.));
#416 = ORIENTED_EDGE('',*,*,#417,.T.);
#417 = EDGE_CURVE('',#410,#418,#420,.T.);
#418 = VERTEX_POINT('',#419);
#419 = CARTESIAN_POINT('',(119.,-173.,28.));
#420 = LINE('',#421,#422);
#421 = CARTESIAN_POINT('',(119.,-173.,10.));
#422 = VECTOR('',#423,1.);
#423 = DIRECTION('',(0.,0.,1.));
#424 = ORIENTED_EDGE('',*,*,#425,.F.);
#425 = EDGE_CURVE('',#402,#418,#426,.T.);
#426 = LINE('',#427,#428);
#427 = CARTESIAN_POINT('',(119.,-171.8,28.));
#428 = VECTOR('',#429,1.);
#429 = DIRECTION('',(-1.224646799147E-16,-1.,0.));
#430 = PLANE('',#431);
#431 = AXIS2_PLACEMENT_3D('',#432,#433,#434);
#432 = CARTESIAN_POINT('',(119.,-171.8,10.));
#433 = DIRECTION('',(-1.,1.224646799147E-16,0.));
#434 = DIRECTION('',(0.,0.,1.));
#435 = ADVANCED_FACE('',(#436,#461),#472,.F.);
#436 = FACE_BOUND('',#437,.F.);
#437 = EDGE_LOOP('',(#438,#446,#447,#455));
#438 = ORIENTED_EDGE('',*,*,#439,.F.);
#439 = EDGE_CURVE('',#400,#440,#442,.T.);
#440 = VERTEX_POINT('',#441);
#441 = CARTESIAN_POINT('',(107.,-171.8,10.));
#442 = LINE('',#443,#444);
#443 = CARTESIAN_POINT('',(119.,-171.8,10.));
#444 = VECTOR('',#445,1.);
#445 = DIRECTION('',(-1.,1.224646799147E-16,0.));
#446 = ORIENTED_EDGE('',*,*,#399,.T.);
#447 = ORIENTED_EDGE('',*,*,#448,.T.);
#448 = EDGE_CURVE('',#402,#449,#451,.T.);
#449 = VERTEX_POINT('',#450);
#450 = CARTESIAN_POINT('',(107.,-171.8,28.));
#451 = LINE('',#452,#453);
#452 = CARTESIAN_POINT('',(119.,-171.8,28.));
#453 = VECTOR('',#454,1.);
#454 = DIRECTION('',(-1.,1.224646799147E-16,0.));
#455 = ORIENTED_EDGE('',*,*,#456,.F.);
#456 = EDGE_CURVE('',#440,#449,#457,.T.);
#457 = LINE('',#458,#459);
#458 = CARTESIAN_POINT('',(107.,-171.8,10.));
#459 = VECTOR('',#460,1.);
#460 = DIRECTION('',(0.,0.,1.));
#461 = FACE_BOUND('',#462,.F.);
#462 = EDGE_LOOP('',(#463));
#463 = ORIENTED_EDGE('',*,*,#464,.F.);
#464 = EDGE_CURVE('',#465,#465,#467,.T.);
#465 = VERTEX_POINT('',#466);
#466 = CARTESIAN_POINT('',(113.,-171.8,17.5));
#467 = CIRCLE('',#468,2.);
#468 = AXIS2_PLACEMENT_3D('',#469,#470,#471);
#469 = CARTESIAN_POINT('',(113.,-171.8,15.5));
#470 = DIRECTION('',(-1.224646799147E-16,-1.,0.));
#471 = DIRECTION('',(0.,0.,1.));
#472 = PLANE('',#473);
#473 = AXIS2_PLACEMENT_3D('',#474,#475,#476);
#474 = CARTESIAN_POINT('',(119.,-171.8,10.));
#475 = DIRECTION('',(-1.224646799147E-16,-1.,0.));
#476 = DIRECTION('',(0.,0.,1.));
#477 = ADVANCED_FACE('',(#478),#496,.T.);
#478 = FACE_BOUND('',#479,.T.);
#479 = EDGE_LOOP('',(#480,#481,#482,#490));
#480 = ORIENTED_EDGE('',*,*,#425,.F.);
#481 = ORIENTED_EDGE('',*,*,#448,.T.);
#482 = ORIENTED_EDGE('',*,*,#483,.T.);
#483 = EDGE_CURVE('',#449,#484,#486,.T.);
#484 = VERTEX_POINT('',#485);
#485 = CARTESIAN_POINT('',(107.,-173.,28.));
#486 = LINE('',#487,#488);
#487 = CARTESIAN_POINT('',(107.,-171.8,28.));
#488 = VECTOR('',#489,1.);
#489 = DIRECTION('',(-1.224646799147E-16,-1.,0.));
#490 = ORIENTED_EDGE('',*,*,#491,.F.);
#491 = EDGE_CURVE('',#418,#484,#492,.T.);
#492 = LINE('',#493,#494);
#493 = CARTESIAN_POINT('',(119.,-173.,28.));
#494 = VECTOR('',#495,1.);
#495 = DIRECTION('',(-1.,1.224646799147E-16,0.));
#496 = PLANE('',#497);
#497 = AXIS2_PLACEMENT_3D('',#498,#499,#500);
#498 = CARTESIAN_POINT('',(119.,-171.8,28.));
#499 = DIRECTION('',(0.,0.,1.));
#500 = DIRECTION('',(-1.,1.224646799147E-16,0.));
#501 = ADVANCED_FACE('',(#502,#520),#531,.T.);
#502 = FACE_BOUND('',#503,.T.);
#503 = EDGE_LOOP('',(#504,#512,#513,#514));
#504 = ORIENTED_EDGE('',*,*,#505,.F.);
#505 = EDGE_CURVE('',#410,#506,#508,.T.);
#506 = VERTEX_POINT('',#507);
#507 = CARTESIAN_POINT('',(107.,-173.,10.));
#508 = LINE('',#509,#510);
#509 = CARTESIAN_POINT('',(119.,-173.,10.));
#510 = VECTOR('',#511,1.);
#511 = DIRECTION('',(-1.,1.224646799147E-16,0.));
#512 = ORIENTED_EDGE('',*,*,#417,.T.);
#513 = ORIENTED_EDGE('',*,*,#491,.T.);
#514 = ORIENTED_EDGE('',*,*,#515,.F.);
#515 = EDGE_CURVE('',#506,#484,#516,.T.);
#516 = LINE('',#517,#518);
#517 = CARTESIAN_POINT('',(107.,-173.,10.));
#518 = VECTOR('',#519,1.);
#519 = DIRECTION('',(0.,0.,1.));
#520 = FACE_BOUND('',#521,.T.);
#521 = EDGE_LOOP('',(#522));
#522 = ORIENTED_EDGE('',*,*,#523,.F.);
#523 = EDGE_CURVE('',#524,#524,#526,.T.);
#524 = VERTEX_POINT('',#525);
#525 = CARTESIAN_POINT('',(113.,-173.,17.5));
#526 = CIRCLE('',#527,2.);
#527 = AXIS2_PLACEMENT_3D('',#528,#529,#530);
#528 = CARTESIAN_POINT('',(113.,-173.,15.5));
#529 = DIRECTION('',(-1.224646799147E-16,-1.,0.));
#530 = DIRECTION('',(0.,0.,1.));
#531 = PLANE('',#532);
#532 = AXIS2_PLACEMENT_3D('',#533,#534,#535);
#533 = CARTESIAN_POINT('',(119.,-173.,10.));
#534 = DIRECTION('',(-1.224646799147E-16,-1.,0.));
#535 = DIRECTION('',(0.,0.,1.));
#536 = ADVANCED_FACE('',(#537),#548,.F.);
#537 = FACE_BOUND('',#538,.F.);
#538 = EDGE_LOOP('',(#539,#540,#541,#547));
#539 = ORIENTED_EDGE('',*,*,#409,.F.);
#540 = ORIENTED_EDGE('',*,*,#439,.T.);
#541 = ORIENTED_EDGE('',*,*,#542,.T.);
#542 = EDGE_CURVE('',#440,#506,#543,.T.);
#543 = LINE('',#544,#545);
#544 = CARTESIAN_POINT('',(107.,-171.8,10.));
#545 = VECTOR('',#546,1.);
#546 = DIRECTION('',(-1.224646799147E-16,-1.,0.));
#547 = ORIENTED_EDGE('',*,*,#505,.F.);
#548 = PLANE('',#549);
#549 = AXIS2_PLACEMENT_3D('',#550,#551,#552);
#550 = CARTESIAN_POINT('',(119.,-171.8,10.));
#551 = DIRECTION('',(0.,0.,1.));
#552 = DIRECTION('',(-1.,1.224646799147E-16,0.));
#553 = ADVANCED_FACE('',(#554),#560,.T.);
#554 = FACE_BOUND('',#555,.T.);
#555 = EDGE_LOOP('',(#556,#557,#558,#559));
#556 = ORIENTED_EDGE('',*,*,#456,.F.);
#557 = ORIENTED_EDGE('',*,*,#542,.T.);
#558 = ORIENTED_EDGE('',*,*,#515,.T.);
#559 = ORIENTED_EDGE('',*,*,#483,.F.);
#560 = PLANE('',#561);
#561 = AXIS2_PLACEMENT_3D('',#562,#563,#564);
#562 = CARTESIAN_POINT('',(107.,-171.8,10.));
#563 = DIRECTION('',(-1.,1.224646799147E-16,0.));
#564 = DIRECTION('',(0.,0.,1.));
#565 = ADVANCED_FACE('',(#566),#577,.F.);
#566 = FACE_BOUND('',#567,.F.);
#567 = EDGE_LOOP('',(#568,#569,#575,#576));
#568 = ORIENTED_EDGE('',*,*,#523,.F.);
#569 = ORIENTED_EDGE('',*,*,#570,.F.);
#570 = EDGE_CURVE('',#465,#524,#571,.T.);
#571 = LINE('',#572,#573);
#572 = CARTESIAN_POINT('',(113.,-169.,17.5));
#573 = VECTOR('',#574,1.);
#574 = DIRECTION('',(-1.224646799147E-16,-1.,0.));
#575 = ORIENTED_EDGE('',*,*,#464,.T.);
#576 = ORIENTED_EDGE('',*,*,#570,.T.);
#577 = CYLINDRICAL_SURFACE('',#578,2.);
#578 = AXIS2_PLACEMENT_3D('',#579,#580,#581);
#579 = CARTESIAN_POINT('',(113.,-169.,15.5));
#580 = DIRECTION('',(-1.224646799147E-16,-1.,0.));
#581 = DIRECTION('',(0.,0.,1.));
#582 = MANIFOLD_SOLID_BREP('',#583);
#583 = CLOSED_SHELL('',(#584,#624,#666,#690,#725,#742,#754));
#584 = ADVANCED_FACE('',(#585),#619,.F.);
#585 = FACE_BOUND('',#586,.F.);
#586 = EDGE_LOOP('',(#587,#597,#605,#613));
#587 = ORIENTED_EDGE('',*,*,#588,.F.);
#588 = EDGE_CURVE('',#589,#591,#593,.T.);
#589 = VERTEX_POINT('',#590);
#590 = CARTESIAN_POINT('',(171.8,119.,10.));
#591 = VERTEX_POINT('',#592);
#592 = CARTESIAN_POINT('',(171.8,119.,28.));
#593 = LINE('',#594,#595);
#594 = CARTESIAN_POINT('',(171.8,119.,10.));
#595 = VECTOR('',#596,1.);
#596 = DIRECTION('',(0.,0.,1.));
#597 = ORIENTED_EDGE('',*,*,#598,.T.);
#598 = EDGE_CURVE('',#589,#599,#601,.T.);
#599 = VERTEX_POINT('',#600);
#600 = CARTESIAN_POINT('',(173.,119.,10.));
#601 = LINE('',#602,#603);
#602 = CARTESIAN_POINT('',(171.8,119.,10.));
#603 = VECTOR('',#604,1.);
#604 = DIRECTION('',(1.,-2.22044604925E-16,0.));
#605 = ORIENTED_EDGE('',*,*,#606,.T.);
#606 = EDGE_CURVE('',#599,#607,#609,.T.);
#607 = VERTEX_POINT('',#608);
#608 = CARTESIAN_POINT('',(173.,119.,28.));
#609 = LINE('',#610,#611);
#610 = CARTESIAN_POINT('',(173.,119.,10.));
#611 = VECTOR('',#612,1.);
#612 = DIRECTION('',(0.,0.,1.));
#613 = ORIENTED_EDGE('',*,*,#614,.F.);
#614 = EDGE_CURVE('',#591,#607,#615,.T.);
#615 = LINE('',#616,#617);
#616 = CARTESIAN_POINT('',(171.8,119.,28.));
#617 = VECTOR('',#618,1.);
#618 = DIRECTION('',(1.,-2.22044604925E-16,0.));
#619 = PLANE('',#620);
#620 = AXIS2_PLACEMENT_3D('',#621,#622,#623);
#621 = CARTESIAN_POINT('',(171.8,119.,10.));
#622 = DIRECTION('',(-2.22044604925E-16,-1.,0.));
#623 = DIRECTION('',(0.,0.,1.));
#624 = ADVANCED_FACE('',(#625,#650),#661,.F.);
#625 = FACE_BOUND('',#626,.F.);
#626 = EDGE_LOOP('',(#627,#635,#636,#644));
#627 = ORIENTED_EDGE('',*,*,#628,.F.);
#628 = EDGE_CURVE('',#589,#629,#631,.T.);
#629 = VERTEX_POINT('',#630);
#630 = CARTESIAN_POINT('',(171.8,107.,10.));
#631 = LINE('',#632,#633);
#632 = CARTESIAN_POINT('',(171.8,119.,10.));
#633 = VECTOR('',#634,1.);
#634 = DIRECTION('',(-2.22044604925E-16,-1.,0.));
#635 = ORIENTED_EDGE('',*,*,#588,.T.);
#636 = ORIENTED_EDGE('',*,*,#637,.T.);
#637 = EDGE_CURVE('',#591,#638,#640,.T.);
#638 = VERTEX_POINT('',#639);
#639 = CARTESIAN_POINT('',(171.8,107.,28.));
#640 = LINE('',#641,#642);
#641 = CARTESIAN_POINT('',(171.8,119.,28.));
#642 = VECTOR('',#643,1.);
#643 = DIRECTION('',(-2.22044604925E-16,-1.,0.));
#644 = ORIENTED_EDGE('',*,*,#645,.F.);
#645 = EDGE_CURVE('',#629,#638,#646,.T.);
#646 = LINE('',#647,#648);
#647 = CARTESIAN_POINT('',(171.8,107.,10.));
#648 = VECTOR('',#649,1.);
#649 = DIRECTION('',(0.,0.,1.));
#650 = FACE_BOUND('',#651,.F.);
#651 = EDGE_LOOP('',(#652));
#652 = ORIENTED_EDGE('',*,*,#653,.F.);
#653 = EDGE_CURVE('',#654,#654,#656,.T.);
#654 = VERTEX_POINT('',#655);
#655 = CARTESIAN_POINT('',(171.8,113.,17.5));
#656 = CIRCLE('',#657,2.);
#657 = AXIS2_PLACEMENT_3D('',#658,#659,#660);
#658 = CARTESIAN_POINT('',(171.8,113.,15.5));
#659 = DIRECTION('',(1.,-2.22044604925E-16,0.));
#660 = DIRECTION('',(0.,0.,1.));
#661 = PLANE('',#662);
#662 = AXIS2_PLACEMENT_3D('',#663,#664,#665);
#663 = CARTESIAN_POINT('',(171.8,119.,10.));
#664 = DIRECTION('',(1.,-2.22044604925E-16,0.));
#665 = DIRECTION('',(0.,0.,1.));
#666 = ADVANCED_FACE('',(#667),#685,.T.);
#667 = FACE_BOUND('',#668,.T.);
#668 = EDGE_LOOP('',(#669,#670,#671,#679));
#669 = ORIENTED_EDGE('',*,*,#614,.F.);
#670 = ORIENTED_EDGE('',*,*,#637,.T.);
#671 = ORIENTED_EDGE('',*,*,#672,.T.);
#672 = EDGE_CURVE('',#638,#673,#675,.T.);
#673 = VERTEX_POINT('',#674);
#674 = CARTESIAN_POINT('',(173.,107.,28.));
#675 = LINE('',#676,#677);
#676 = CARTESIAN_POINT('',(171.8,107.,28.));
#677 = VECTOR('',#678,1.);
#678 = DIRECTION('',(1.,-2.22044604925E-16,0.));
#679 = ORIENTED_EDGE('',*,*,#680,.F.);
#680 = EDGE_CURVE('',#607,#673,#681,.T.);
#681 = LINE('',#682,#683);
#682 = CARTESIAN_POINT('',(173.,119.,28.));
#683 = VECTOR('',#684,1.);
#684 = DIRECTION('',(-2.22044604925E-16,-1.,0.));
#685 = PLANE('',#686);
#686 = AXIS2_PLACEMENT_3D('',#687,#688,#689);
#687 = CARTESIAN_POINT('',(171.8,119.,28.));
#688 = DIRECTION('',(0.,0.,1.));
#689 = DIRECTION('',(-2.22044604925E-16,-1.,0.));
#690 = ADVANCED_FACE('',(#691,#709),#720,.T.);
#691 = FACE_BOUND('',#692,.T.);
#692 = EDGE_LOOP('',(#693,#701,#702,#703));
#693 = ORIENTED_EDGE('',*,*,#694,.F.);
#694 = EDGE_CURVE('',#599,#695,#697,.T.);
#695 = VERTEX_POINT('',#696);
#696 = CARTESIAN_POINT('',(173.,107.,10.));
#697 = LINE('',#698,#699);
#698 = CARTESIAN_POINT('',(173.,119.,10.));
#699 = VECTOR('',#700,1.);
#700 = DIRECTION('',(-2.22044604925E-16,-1.,0.));
#701 = ORIENTED_EDGE('',*,*,#606,.T.);
#702 = ORIENTED_EDGE('',*,*,#680,.T.);
#703 = ORIENTED_EDGE('',*,*,#704,.F.);
#704 = EDGE_CURVE('',#695,#673,#705,.T.);
#705 = LINE('',#706,#707);
#706 = CARTESIAN_POINT('',(173.,107.,10.));
#707 = VECTOR('',#708,1.);
#708 = DIRECTION('',(0.,0.,1.));
#709 = FACE_BOUND('',#710,.T.);
#710 = EDGE_LOOP('',(#711));
#711 = ORIENTED_EDGE('',*,*,#712,.F.);
#712 = EDGE_CURVE('',#713,#713,#715,.T.);
#713 = VERTEX_POINT('',#714);
#714 = CARTESIAN_POINT('',(173.,113.,17.5));
#715 = CIRCLE('',#716,2.);
#716 = AXIS2_PLACEMENT_3D('',#717,#718,#719);
#717 = CARTESIAN_POINT('',(173.,113.,15.5));
#718 = DIRECTION('',(1.,-2.22044604925E-16,0.));
#719 = DIRECTION('',(0.,0.,1.));
#720 = PLANE('',#721);
#721 = AXIS2_PLACEMENT_3D('',#722,#723,#724);
#722 = CARTESIAN_POINT('',(173.,119.,10.));
#723 = DIRECTION('',(1.,-2.22044604925E-16,0.));
#724 = DIRECTION('',(0.,0.,1.));
#725 = ADVANCED_FACE('',(#726),#737,.F.);
#726 = FACE_BOUND('',#727,.F.);
#727 = EDGE_LOOP('',(#728,#729,#730,#736));
#728 = ORIENTED_EDGE('',*,*,#598,.F.);
#729 = ORIENTED_EDGE('',*,*,#628,.T.);
#730 = ORIENTED_EDGE('',*,*,#731,.T.);
#731 = EDGE_CURVE('',#629,#695,#732,.T.);
#732 = LINE('',#733,#734);
#733 = CARTESIAN_POINT('',(171.8,107.,10.));
#734 = VECTOR('',#735,1.);
#735 = DIRECTION('',(1.,-2.22044604925E-16,0.));
#736 = ORIENTED_EDGE('',*,*,#694,.F.);
#737 = PLANE('',#738);
#738 = AXIS2_PLACEMENT_3D('',#739,#740,#741);
#739 = CARTESIAN_POINT('',(171.8,119.,10.));
#740 = DIRECTION('',(0.,0.,1.));
#741 = DIRECTION('',(-2.22044604925E-16,-1.,0.));
#742 = ADVANCED_FACE('',(#743),#749,.T.);
#743 = FACE_BOUND('',#744,.T.);
#744 = EDGE_LOOP('',(#745,#746,#747,#748));
#745 = ORIENTED_EDGE('',*,*,#645,.F.);
#746 = ORIENTED_EDGE('',*,*,#731,.T.);
#747 = ORIENTED_EDGE('',*,*,#704,.T.);
#748 = ORIENTED_EDGE('',*,*,#672,.F.);
#749 = PLANE('',#750);
#750 = AXIS2_PLACEMENT_3D('',#751,#752,#753);
#751 = CARTESIAN_POINT('',(171.8,107.,10.));
#752 = DIRECTION('',(-2.22044604925E-16,-1.,0.));
#753 = DIRECTION('',(0.,0.,1.));
#754 = ADVANCED_FACE('',(#755),#766,.F.);
#755 = FACE_BOUND('',#756,.F.);
#756 = EDGE_LOOP('',(#757,#758,#764,#765));
#757 = ORIENTED_EDGE('',*,*,#712,.F.);
#758 = ORIENTED_EDGE('',*,*,#759,.F.);
#759 = EDGE_CURVE('',#654,#713,#760,.T.);
#760 = LINE('',#761,#762);
#761 = CARTESIAN_POINT('',(169.,113.,17.5));
#762 = VECTOR('',#763,1.);
#763 = DIRECTION('',(1.,-2.22044604925E-16,0.));
#764 = ORIENTED_EDGE('',*,*,#653,.T.);
#765 = ORIENTED_EDGE('',*,*,#759,.T.);
#766 = CYLINDRICAL_SURFACE('',#767,2.);
#767 = AXIS2_PLACEMENT_3D('',#768,#769,#770);
#768 = CARTESIAN_POINT('',(169.,113.,15.5));
#769 = DIRECTION('',(1.,-2.22044604925E-16,0.));
#770 = DIRECTION('',(0.,0.,1.));
#771 = MANIFOLD_SOLID_BREP('',#772);
#772 = CLOSED_SHELL('',(#773,#813,#855,#879,#914,#931,#943));
#773 = ADVANCED_FACE('',(#774),#808,.F.);
#774 = FACE_BOUND('',#775,.F.);
#775 = EDGE_LOOP('',(#776,#786,#794,#802));
#776 = ORIENTED_EDGE('',*,*,#777,.F.);
#777 = EDGE_CURVE('',#778,#780,#782,.T.);
#778 = VERTEX_POINT('',#779);
#779 = CARTESIAN_POINT('',(107.,171.8,10.));
#780 = VERTEX_POINT('',#781);
#781 = CARTESIAN_POINT('',(107.,171.8,28.));
#782 = LINE('',#783,#784);
#783 = CARTESIAN_POINT('',(107.,171.8,10.));
#784 = VECTOR('',#785,1.);
#785 = DIRECTION('',(0.,0.,1.));
#786 = ORIENTED_EDGE('',*,*,#787,.T.);
#787 = EDGE_CURVE('',#778,#788,#790,.T.);
#788 = VERTEX_POINT('',#789);
#789 = CARTESIAN_POINT('',(107.,173.,10.));
#790 = LINE('',#791,#792);
#791 = CARTESIAN_POINT('',(107.,171.8,10.));
#792 = VECTOR('',#793,1.);
#793 = DIRECTION('',(-0.,1.,0.));
#794 = ORIENTED_EDGE('',*,*,#795,.T.);
#795 = EDGE_CURVE('',#788,#796,#798,.T.);
#796 = VERTEX_POINT('',#797);
#797 = CARTESIAN_POINT('',(107.,173.,28.));
#798 = LINE('',#799,#800);
#799 = CARTESIAN_POINT('',(107.,173.,10.));
#800 = VECTOR('',#801,1.);
#801 = DIRECTION('',(0.,0.,1.));
#802 = ORIENTED_EDGE('',*,*,#803,.F.);
#803 = EDGE_CURVE('',#780,#796,#804,.T.);
#804 = LINE('',#805,#806);
#805 = CARTESIAN_POINT('',(107.,171.8,28.));
#806 = VECTOR('',#807,1.);
#807 = DIRECTION('',(-0.,1.,0.));
#808 = PLANE('',#809);
#809 = AXIS2_PLACEMENT_3D('',#810,#811,#812);
#810 = CARTESIAN_POINT('',(107.,171.8,10.));
#811 = DIRECTION('',(1.,0.,-0.));
#812 = DIRECTION('',(0.,0.,1.));
#813 = ADVANCED_FACE('',(#814,#839),#850,.F.);
#814 = FACE_BOUND('',#815,.F.);
#815 = EDGE_LOOP('',(#816,#824,#825,#833));
#816 = ORIENTED_EDGE('',*,*,#817,.F.);
#817 = EDGE_CURVE('',#778,#818,#820,.T.);
#818 = VERTEX_POINT('',#819);
#819 = CARTESIAN_POINT('',(119.,171.8,10.));
#820 = LINE('',#821,#822);
#821 = CARTESIAN_POINT('',(107.,171.8,10.));
#822 = VECTOR('',#823,1.);
#823 = DIRECTION('',(1.,0.,-0.));
#824 = ORIENTED_EDGE('',*,*,#777,.T.);
#825 = ORIENTED_EDGE('',*,*,#826,.T.);
#826 = EDGE_CURVE('',#780,#827,#829,.T.);
#827 = VERTEX_POINT('',#828);
#828 = CARTESIAN_POINT('',(119.,171.8,28.));
#829 = LINE('',#830,#831);
#830 = CARTESIAN_POINT('',(107.,171.8,28.));
#831 = VECTOR('',#832,1.);
#832 = DIRECTION('',(1.,0.,-0.));
#833 = ORIENTED_EDGE('',*,*,#834,.F.);
#834 = EDGE_CURVE('',#818,#827,#835,.T.);
#835 = LINE('',#836,#837);
#836 = CARTESIAN_POINT('',(119.,171.8,10.));
#837 = VECTOR('',#838,1.);
#838 = DIRECTION('',(0.,0.,1.));
#839 = FACE_BOUND('',#840,.F.);
#840 = EDGE_LOOP('',(#841));
#841 = ORIENTED_EDGE('',*,*,#842,.F.);
#842 = EDGE_CURVE('',#843,#843,#845,.T.);
#843 = VERTEX_POINT('',#844);
#844 = CARTESIAN_POINT('',(113.,171.8,17.5));
#845 = CIRCLE('',#846,2.);
#846 = AXIS2_PLACEMENT_3D('',#847,#848,#849);
#847 = CARTESIAN_POINT('',(113.,171.8,15.5));
#848 = DIRECTION('',(0.,1.,0.));
#849 = DIRECTION('',(0.,-0.,1.));
#850 = PLANE('',#851);
#851 = AXIS2_PLACEMENT_3D('',#852,#853,#854);
#852 = CARTESIAN_POINT('',(107.,171.8,10.));
#853 = DIRECTION('',(-0.,1.,0.));
#854 = DIRECTION('',(0.,0.,1.));
#855 = ADVANCED_FACE('',(#856),#874,.T.);
#856 = FACE_BOUND('',#857,.T.);
#857 = EDGE_LOOP('',(#858,#859,#860,#868));
#858 = ORIENTED_EDGE('',*,*,#803,.F.);
#859 = ORIENTED_EDGE('',*,*,#826,.T.);
#860 = ORIENTED_EDGE('',*,*,#861,.T.);
#861 = EDGE_CURVE('',#827,#862,#864,.T.);
#862 = VERTEX_POINT('',#863);
#863 = CARTESIAN_POINT('',(119.,173.,28.));
#864 = LINE('',#865,#866);
#865 = CARTESIAN_POINT('',(119.,171.8,28.));
#866 = VECTOR('',#867,1.);
#867 = DIRECTION('',(-0.,1.,0.));
#868 = ORIENTED_EDGE('',*,*,#869,.F.);
#869 = EDGE_CURVE('',#796,#862,#870,.T.);
#870 = LINE('',#871,#872);
#871 = CARTESIAN_POINT('',(107.,173.,28.));
#872 = VECTOR('',#873,1.);
#873 = DIRECTION('',(1.,0.,-0.));
#874 = PLANE('',#875);
#875 = AXIS2_PLACEMENT_3D('',#876,#877,#878);
#876 = CARTESIAN_POINT('',(107.,171.8,28.));
#877 = DIRECTION('',(0.,0.,1.));
#878 = DIRECTION('',(1.,0.,-0.));
#879 = ADVANCED_FACE('',(#880,#898),#909,.T.);
#880 = FACE_BOUND('',#881,.T.);
#881 = EDGE_LOOP('',(#882,#890,#891,#892));
#882 = ORIENTED_EDGE('',*,*,#883,.F.);
#883 = EDGE_CURVE('',#788,#884,#886,.T.);
#884 = VERTEX_POINT('',#885);
#885 = CARTESIAN_POINT('',(119.,173.,10.));
#886 = LINE('',#887,#888);
#887 = CARTESIAN_POINT('',(107.,173.,10.));
#888 = VECTOR('',#889,1.);
#889 = DIRECTION('',(1.,0.,-0.));
#890 = ORIENTED_EDGE('',*,*,#795,.T.);
#891 = ORIENTED_EDGE('',*,*,#869,.T.);
#892 = ORIENTED_EDGE('',*,*,#893,.F.);
#893 = EDGE_CURVE('',#884,#862,#894,.T.);
#894 = LINE('',#895,#896);
#895 = CARTESIAN_POINT('',(119.,173.,10.));
#896 = VECTOR('',#897,1.);
#897 = DIRECTION('',(0.,0.,1.));
#898 = FACE_BOUND('',#899,.T.);
#899 = EDGE_LOOP('',(#900));
#900 = ORIENTED_EDGE('',*,*,#901,.F.);
#901 = EDGE_CURVE('',#902,#902,#904,.T.);
#902 = VERTEX_POINT('',#903);
#903 = CARTESIAN_POINT('',(113.,173.,17.5));
#904 = CIRCLE('',#905,2.);
#905 = AXIS2_PLACEMENT_3D('',#906,#907,#908);
#906 = CARTESIAN_POINT('',(113.,173.,15.5));
#907 = DIRECTION('',(0.,1.,0.));
#908 = DIRECTION('',(0.,-0.,1.));
#909 = PLANE('',#910);
#910 = AXIS2_PLACEMENT_3D('',#911,#912,#913);
#911 = CARTESIAN_POINT('',(107.,173.,10.));
#912 = DIRECTION('',(-0.,1.,0.));
#913 = DIRECTION('',(0.,0.,1.));
#914 = ADVANCED_FACE('',(#915),#926,.F.);
#915 = FACE_BOUND('',#916,.F.);
#916 = EDGE_LOOP('',(#917,#918,#919,#925));
#917 = ORIENTED_EDGE('',*,*,#787,.F.);
#918 = ORIENTED_EDGE('',*,*,#817,.T.);
#919 = ORIENTED_EDGE('',*,*,#920,.T.);
#920 = EDGE_CURVE('',#818,#884,#921,.T.);
#921 = LINE('',#922,#923);
#922 = CARTESIAN_POINT('',(119.,171.8,10.));
#923 = VECTOR('',#924,1.);
#924 = DIRECTION('',(-0.,1.,0.));
#925 = ORIENTED_EDGE('',*,*,#883,.F.);
#926 = PLANE('',#927);
#927 = AXIS2_PLACEMENT_3D('',#928,#929,#930);
#928 = CARTESIAN_POINT('',(107.,171.8,10.));
#929 = DIRECTION('',(0.,0.,1.));
#930 = DIRECTION('',(1.,0.,-0.));
#931 = ADVANCED_FACE('',(#932),#938,.T.);
#932 = FACE_BOUND('',#933,.T.);
#933 = EDGE_LOOP('',(#934,#935,#936,#937));
#934 = ORIENTED_EDGE('',*,*,#834,.F.);
#935 = ORIENTED_EDGE('',*,*,#920,.T.);
#936 = ORIENTED_EDGE('',*,*,#893,.T.);
#937 = ORIENTED_EDGE('',*,*,#861,.F.);
#938 = PLANE('',#939);
#939 = AXIS2_PLACEMENT_3D('',#940,#941,#942);
#940 = CARTESIAN_POINT('',(119.,171.8,10.));
#941 = DIRECTION('',(1.,0.,-0.));
#942 = DIRECTION('',(0.,0.,1.));
#943 = ADVANCED_FACE('',(#944),#955,.F.);
#944 = FACE_BOUND('',#945,.F.);
#945 = EDGE_LOOP('',(#946,#947,#953,#954));
#946 = ORIENTED_EDGE('',*,*,#901,.F.);
#947 = ORIENTED_EDGE('',*,*,#948,.F.);
#948 = EDGE_CURVE('',#843,#902,#949,.T.);
#949 = LINE('',#950,#951);
#950 = CARTESIAN_POINT('',(113.,169.,17.5));
#951 = VECTOR('',#952,1.);
#952 = DIRECTION('',(0.,1.,0.));
#953 = ORIENTED_EDGE('',*,*,#842,.T.);
#954 = ORIENTED_EDGE('',*,*,#948,.T.);
#955 = CYLINDRICAL_SURFACE('',#956,2.);
#956 = AXIS2_PLACEMENT_3D('',#957,#958,#959);
#957 = CARTESIAN_POINT('',(113.,169.,15.5));
#958 = DIRECTION('',(0.,1.,0.));
#959 = DIRECTION('',(0.,-0.,1.));
#960 = MANIFOLD_SOLID_BREP('',#961);
#961 = CLOSED_SHELL('',(#962,#1002,#1044,#1068,#1103,#1120,#1132));
#962 = ADVANCED_FACE('',(#963),#997,.F.);
#963 = FACE_BOUND('',#964,.F.);
#964 = EDGE_LOOP('',(#965,#975,#983,#991));
#965 = ORIENTED_EDGE('',*,*,#966,.F.);
#966 = EDGE_CURVE('',#967,#969,#971,.T.);
#967 = VERTEX_POINT('',#968);
#968 = CARTESIAN_POINT('',(-171.8,107.,10.));
#969 = VERTEX_POINT('',#970);
#970 = CARTESIAN_POINT('',(-171.8,107.,28.));
#971 = LINE('',#972,#973);
#972 = CARTESIAN_POINT('',(-171.8,107.,10.));
#973 = VECTOR('',#974,1.);
#974 = DIRECTION('',(0.,0.,1.));
#975 = ORIENTED_EDGE('',*,*,#976,.T.);
#976 = EDGE_CURVE('',#967,#977,#979,.T.);
#977 = VERTEX_POINT('',#978);
#978 = CARTESIAN_POINT('',(-173.,107.,10.));
#979 = LINE('',#980,#981);
#980 = CARTESIAN_POINT('',(-171.8,107.,10.));
#981 = VECTOR('',#982,1.);
#982 = DIRECTION('',(-1.,1.110223024625E-16,0.));
#983 = ORIENTED_EDGE('',*,*,#984,.T.);
#984 = EDGE_CURVE('',#977,#985,#987,.T.);
#985 = VERTEX_POINT('',#986);
#986 = CARTESIAN_POINT('',(-173.,107.,28.));
#987 = LINE('',#988,#989);
#988 = CARTESIAN_POINT('',(-173.,107.,10.));
#989 = VECTOR('',#990,1.);
#990 = DIRECTION('',(0.,0.,1.));
#991 = ORIENTED_EDGE('',*,*,#992,.F.);
#992 = EDGE_CURVE('',#969,#985,#993,.T.);
#993 = LINE('',#994,#995);
#994 = CARTESIAN_POINT('',(-171.8,107.,28.));
#995 = VECTOR('',#996,1.);
#996 = DIRECTION('',(-1.,1.110223024625E-16,0.));
#997 = PLANE('',#998);
#998 = AXIS2_PLACEMENT_3D('',#999,#1000,#1001);
#999 = CARTESIAN_POINT('',(-171.8,107.,10.));
#1000 = DIRECTION('',(1.110223024625E-16,1.,0.));
#1001 = DIRECTION('',(0.,0.,1.));
#1002 = ADVANCED_FACE('',(#1003,#1028),#1039,.F.);
#1003 = FACE_BOUND('',#1004,.F.);
#1004 = EDGE_LOOP('',(#1005,#1013,#1014,#1022));
#1005 = ORIENTED_EDGE('',*,*,#1006,.F.);
#1006 = EDGE_CURVE('',#967,#1007,#1009,.T.);
#1007 = VERTEX_POINT('',#1008);
#1008 = CARTESIAN_POINT('',(-171.8,119.,10.));
#1009 = LINE('',#1010,#1011);
#1010 = CARTESIAN_POINT('',(-171.8,107.,10.));
#1011 = VECTOR('',#1012,1.);
#1012 = DIRECTION('',(1.110223024625E-16,1.,0.));
#1013 = ORIENTED_EDGE('',*,*,#966,.T.);
#1014 = ORIENTED_EDGE('',*,*,#1015,.T.);
#1015 = EDGE_CURVE('',#969,#1016,#1018,.T.);
#1016 = VERTEX_POINT('',#1017);
#1017 = CARTESIAN_POINT('',(-171.8,119.,28.));
#1018 = LINE('',#1019,#1020);
#1019 = CARTESIAN_POINT('',(-171.8,107.,28.));
#1020 = VECTOR('',#1021,1.);
#1021 = DIRECTION('',(1.110223024625E-16,1.,0.));
#1022 = ORIENTED_EDGE('',*,*,#1023,.F.);
#1023 = EDGE_CURVE('',#1007,#1016,#1024,.T.);
#1024 = LINE('',#1025,#1026);
#1025 = CARTESIAN_POINT('',(-171.8,119.,10.));
#1026 = VECTOR('',#1027,1.);
#1027 = DIRECTION('',(0.,0.,1.));
#1028 = FACE_BOUND('',#1029,.F.);
#1029 = EDGE_LOOP('',(#1030));
#1030 = ORIENTED_EDGE('',*,*,#1031,.F.);
#1031 = EDGE_CURVE('',#1032,#1032,#1034,.T.);
#1032 = VERTEX_POINT('',#1033);
#1033 = CARTESIAN_POINT('',(-171.8,113.,17.5));
#1034 = CIRCLE('',#1035,2.);
#1035 = AXIS2_PLACEMENT_3D('',#1036,#1037,#1038);
#1036 = CARTESIAN_POINT('',(-171.8,113.,15.5));
#1037 = DIRECTION('',(-1.,1.110223024625E-16,0.));
#1038 = DIRECTION('',(0.,0.,1.));
#1039 = PLANE('',#1040);
#1040 = AXIS2_PLACEMENT_3D('',#1041,#1042,#1043);
#1041 = CARTESIAN_POINT('',(-171.8,107.,10.));
#1042 = DIRECTION('',(-1.,1.110223024625E-16,0.));
#1043 = DIRECTION('',(0.,0.,1.));
#1044 = ADVANCED_FACE('',(#1045),#1063,.T.);
#1045 = FACE_BOUND('',#1046,.T.);
#1046 = EDGE_LOOP('',(#1047,#1048,#1049,#1057));
#1047 = ORIENTED_EDGE('',*,*,#992,.F.);
#1048 = ORIENTED_EDGE('',*,*,#1015,.T.);
#1049 = ORIENTED_EDGE('',*,*,#1050,.T.);
#1050 = EDGE_CURVE('',#1016,#1051,#1053,.T.);
#1051 = VERTEX_POINT('',#1052);
#1052 = CARTESIAN_POINT('',(-173.,119.,28.));
#1053 = LINE('',#1054,#1055);
#1054 = CARTESIAN_POINT('',(-171.8,119.,28.));
#1055 = VECTOR('',#1056,1.);
#1056 = DIRECTION('',(-1.,1.110223024625E-16,0.));
#1057 = ORIENTED_EDGE('',*,*,#1058,.F.);
#1058 = EDGE_CURVE('',#985,#1051,#1059,.T.);
#1059 = LINE('',#1060,#1061);
#1060 = CARTESIAN_POINT('',(-173.,107.,28.));
#1061 = VECTOR('',#1062,1.);
#1062 = DIRECTION('',(1.110223024625E-16,1.,0.));
#1063 = PLANE('',#1064);
#1064 = AXIS2_PLACEMENT_3D('',#1065,#1066,#1067);
#1065 = CARTESIAN_POINT('',(-171.8,107.,28.));
#1066 = DIRECTION('',(0.,0.,1.));
#1067 = DIRECTION('',(1.110223024625E-16,1.,0.));
#1068 = ADVANCED_FACE('',(#1069,#1087),#1098,.T.);
#1069 = FACE_BOUND('',#1070,.T.);
#1070 = EDGE_LOOP('',(#1071,#1079,#1080,#1081));
#1071 = ORIENTED_EDGE('',*,*,#1072,.F.);
#1072 = EDGE_CURVE('',#977,#1073,#1075,.T.);
#1073 = VERTEX_POINT('',#1074);
#1074 = CARTESIAN_POINT('',(-173.,119.,10.));
#1075 = LINE('',#1076,#1077);
#1076 = CARTESIAN_POINT('',(-173.,107.,10.));
#1077 = VECTOR('',#1078,1.);
#1078 = DIRECTION('',(1.110223024625E-16,1.,0.));
#1079 = ORIENTED_EDGE('',*,*,#984,.T.);
#1080 = ORIENTED_EDGE('',*,*,#1058,.T.);
#1081 = ORIENTED_EDGE('',*,*,#1082,.F.);
#1082 = EDGE_CURVE('',#1073,#1051,#1083,.T.);
#1083 = LINE('',#1084,#1085);
#1084 = CARTESIAN_POINT('',(-173.,119.,10.));
#1085 = VECTOR('',#1086,1.);
#1086 = DIRECTION('',(0.,0.,1.));
#1087 = FACE_BOUND('',#1088,.T.);
#1088 = EDGE_LOOP('',(#1089));
#1089 = ORIENTED_EDGE('',*,*,#1090,.F.);
#1090 = EDGE_CURVE('',#1091,#1091,#1093,.T.);
#1091 = VERTEX_POINT('',#1092);
#1092 = CARTESIAN_POINT('',(-173.,113.,17.5));
#1093 = CIRCLE('',#1094,2.);
#1094 = AXIS2_PLACEMENT_3D('',#1095,#1096,#1097);
#1095 = CARTESIAN_POINT('',(-173.,113.,15.5));
#1096 = DIRECTION('',(-1.,1.110223024625E-16,0.));
#1097 = DIRECTION('',(0.,0.,1.));
#1098 = PLANE('',#1099);
#1099 = AXIS2_PLACEMENT_3D('',#1100,#1101,#1102);
#1100 = CARTESIAN_POINT('',(-173.,107.,10.));
#1101 = DIRECTION('',(-1.,1.110223024625E-16,0.));
#1102 = DIRECTION('',(0.,0.,1.));
#1103 = ADVANCED_FACE('',(#1104),#1115,.F.);
#1104 = FACE_BOUND('',#1105,.F.);
#1105 = EDGE_LOOP('',(#1106,#1107,#1108,#1114));
#1106 = ORIENTED_EDGE('',*,*,#976,.F.);
#1107 = ORIENTED_EDGE('',*,*,#1006,.T.);
#1108 = ORIENTED_EDGE('',*,*,#1109,.T.);
#1109 = EDGE_CURVE('',#1007,#1073,#1110,.T.);
#1110 = LINE('',#1111,#1112);
#1111 = CARTESIAN_POINT('',(-171.8,119.,10.));
#1112 = VECTOR('',#1113,1.);
#1113 = DIRECTION('',(-1.,1.110223024625E-16,0.));
#1114 = ORIENTED_EDGE('',*,*,#1072,.F.);
#1115 = PLANE('',#1116);
#1116 = AXIS2_PLACEMENT_3D('',#1117,#1118,#1119);
#1117 = CARTESIAN_POINT('',(-171.8,107.,10.));
#1118 = DIRECTION('',(0.,0.,1.));
#1119 = DIRECTION('',(1.110223024625E-16,1.,0.));
#1120 = ADVANCED_FACE('',(#1121),#1127,.T.);
#1121 = FACE_BOUND('',#1122,.T.);
#1122 = EDGE_LOOP('',(#1123,#1124,#1125,#1126));
#1123 = ORIENTED_EDGE('',*,*,#1023,.F.);
#1124 = ORIENTED_EDGE('',*,*,#1109,.T.);
#1125 = ORIENTED_EDGE('',*,*,#1082,.T.);
#1126 = ORIENTED_EDGE('',*,*,#1050,.F.);
#1127 = PLANE('',#1128);
#1128 = AXIS2_PLACEMENT_3D('',#1129,#1130,#1131);
#1129 = CARTESIAN_POINT('',(-171.8,119.,10.));
#1130 = DIRECTION('',(1.110223024625E-16,1.,0.));
#1131 = DIRECTION('',(0.,0.,1.));
#1132 = ADVANCED_FACE('',(#1133),#1144,.F.);
#1133 = FACE_BOUND('',#1134,.F.);
#1134 = EDGE_LOOP('',(#1135,#1136,#1142,#1143));
#1135 = ORIENTED_EDGE('',*,*,#1090,.F.);
#1136 = ORIENTED_EDGE('',*,*,#1137,.F.);
#1137 = EDGE_CURVE('',#1032,#1091,#1138,.T.);
#1138 = LINE('',#1139,#1140);
#1139 = CARTESIAN_POINT('',(-169.,113.,17.5));
#1140 = VECTOR('',#1141,1.);
#1141 = DIRECTION('',(-1.,1.110223024625E-16,0.));
#1142 = ORIENTED_EDGE('',*,*,#1031,.T.);
#1143 = ORIENTED_EDGE('',*,*,#1137,.T.);
#1144 = CYLINDRICAL_SURFACE('',#1145,2.);
#1145 = AXIS2_PLACEMENT_3D('',#1146,#1147,#1148);
#1146 = CARTESIAN_POINT('',(-169.,113.,15.5));
#1147 = DIRECTION('',(-1.,1.110223024625E-16,0.));
#1148 = DIRECTION('',(0.,0.,1.));
#1149 = MANIFOLD_SOLID_BREP('',#1150);
#1150 = CLOSED_SHELL('',(#1151,#1191,#1233,#1257,#1292,#1309,#1321));
#1151 = ADVANCED_FACE('',(#1152),#1186,.F.);
#1152 = FACE_BOUND('',#1153,.F.);
#1153 = EDGE_LOOP('',(#1154,#1164,#1172,#1180));
#1154 = ORIENTED_EDGE('',*,*,#1155,.F.);
#1155 = EDGE_CURVE('',#1156,#1158,#1160,.T.);
#1156 = VERTEX_POINT('',#1157);
#1157 = CARTESIAN_POINT('',(-107.,-171.8,10.));
#1158 = VERTEX_POINT('',#1159);
#1159 = CARTESIAN_POINT('',(-107.,-171.8,28.));
#1160 = LINE('',#1161,#1162);
#1161 = CARTESIAN_POINT('',(-107.,-171.8,10.));
#1162 = VECTOR('',#1163,1.);
#1163 = DIRECTION('',(0.,0.,1.));
#1164 = ORIENTED_EDGE('',*,*,#1165,.T.);
#1165 = EDGE_CURVE('',#1156,#1166,#1168,.T.);
#1166 = VERTEX_POINT('',#1167);
#1167 = CARTESIAN_POINT('',(-107.,-173.,10.));
#1168 = LINE('',#1169,#1170);
#1169 = CARTESIAN_POINT('',(-107.,-171.8,10.));
#1170 = VECTOR('',#1171,1.);
#1171 = DIRECTION('',(-1.224646799147E-16,-1.,0.));
#1172 = ORIENTED_EDGE('',*,*,#1173,.T.);
#1173 = EDGE_CURVE('',#1166,#1174,#1176,.T.);
#1174 = VERTEX_POINT('',#1175);
#1175 = CARTESIAN_POINT('',(-107.,-173.,28.));
#1176 = LINE('',#1177,#1178);
#1177 = CARTESIAN_POINT('',(-107.,-173.,10.));
#1178 = VECTOR('',#1179,1.);
#1179 = DIRECTION('',(0.,0.,1.));
#1180 = ORIENTED_EDGE('',*,*,#1181,.F.);
#1181 = EDGE_CURVE('',#1158,#1174,#1182,.T.);
#1182 = LINE('',#1183,#1184);
#1183 = CARTESIAN_POINT('',(-107.,-171.8,28.));
#1184 = VECTOR('',#1185,1.);
#1185 = DIRECTION('',(-1.224646799147E-16,-1.,0.));
#1186 = PLANE('',#1187);
#1187 = AXIS2_PLACEMENT_3D('',#1188,#1189,#1190);
#1188 = CARTESIAN_POINT('',(-107.,-171.8,10.));
#1189 = DIRECTION('',(-1.,1.224646799147E-16,0.));
#1190 = DIRECTION('',(0.,0.,1.));
#1191 = ADVANCED_FACE('',(#1192,#1217),#1228,.F.);
#1192 = FACE_BOUND('',#1193,.F.);
#1193 = EDGE_LOOP('',(#1194,#1202,#1203,#1211));
#1194 = ORIENTED_EDGE('',*,*,#1195,.F.);
#1195 = EDGE_CURVE('',#1156,#1196,#1198,.T.);
#1196 = VERTEX_POINT('',#1197);
#1197 = CARTESIAN_POINT('',(-119.,-171.8,10.));
#1198 = LINE('',#1199,#1200);
#1199 = CARTESIAN_POINT('',(-107.,-171.8,10.));
#1200 = VECTOR('',#1201,1.);
#1201 = DIRECTION('',(-1.,1.224646799147E-16,0.));
#1202 = ORIENTED_EDGE('',*,*,#1155,.T.);
#1203 = ORIENTED_EDGE('',*,*,#1204,.T.);
#1204 = EDGE_CURVE('',#1158,#1205,#1207,.T.);
#1205 = VERTEX_POINT('',#1206);
#1206 = CARTESIAN_POINT('',(-119.,-171.8,28.));
#1207 = LINE('',#1208,#1209);
#1208 = CARTESIAN_POINT('',(-107.,-171.8,28.));
#1209 = VECTOR('',#1210,1.);
#1210 = DIRECTION('',(-1.,1.224646799147E-16,0.));
#1211 = ORIENTED_EDGE('',*,*,#1212,.F.);
#1212 = EDGE_CURVE('',#1196,#1205,#1213,.T.);
#1213 = LINE('',#1214,#1215);
#1214 = CARTESIAN_POINT('',(-119.,-171.8,10.));
#1215 = VECTOR('',#1216,1.);
#1216 = DIRECTION('',(0.,0.,1.));
#1217 = FACE_BOUND('',#1218,.F.);
#1218 = EDGE_LOOP('',(#1219));
#1219 = ORIENTED_EDGE('',*,*,#1220,.F.);
#1220 = EDGE_CURVE('',#1221,#1221,#1223,.T.);
#1221 = VERTEX_POINT('',#1222);
#1222 = CARTESIAN_POINT('',(-113.,-171.8,17.5));
#1223 = CIRCLE('',#1224,2.);
#1224 = AXIS2_PLACEMENT_3D('',#1225,#1226,#1227);
#1225 = CARTESIAN_POINT('',(-113.,-171.8,15.5));
#1226 = DIRECTION('',(-1.224646799147E-16,-1.,0.));
#1227 = DIRECTION('',(0.,0.,1.));
#1228 = PLANE('',#1229);
#1229 = AXIS2_PLACEMENT_3D('',#1230,#1231,#1232);
#1230 = CARTESIAN_POINT('',(-107.,-171.8,10.));
#1231 = DIRECTION('',(-1.224646799147E-16,-1.,0.));
#1232 = DIRECTION('',(0.,0.,1.));
#1233 = ADVANCED_FACE('',(#1234),#1252,.T.);
#1234 = FACE_BOUND('',#1235,.T.);
#1235 = EDGE_LOOP('',(#1236,#1237,#1238,#1246));
#1236 = ORIENTED_EDGE('',*,*,#1181,.F.);
#1237 = ORIENTED_EDGE('',*,*,#1204,.T.);
#1238 = ORIENTED_EDGE('',*,*,#1239,.T.);
#1239 = EDGE_CURVE('',#1205,#1240,#1242,.T.);
#1240 = VERTEX_POINT('',#1241);
#1241 = CARTESIAN_POINT('',(-119.,-173.,28.));
#1242 = LINE('',#1243,#1244);
#1243 = CARTESIAN_POINT('',(-119.,-171.8,28.));
#1244 = VECTOR('',#1245,1.);
#1245 = DIRECTION('',(-1.224646799147E-16,-1.,0.));
#1246 = ORIENTED_EDGE('',*,*,#1247,.F.);
#1247 = EDGE_CURVE('',#1174,#1240,#1248,.T.);
#1248 = LINE('',#1249,#1250);
#1249 = CARTESIAN_POINT('',(-107.,-173.,28.));
#1250 = VECTOR('',#1251,1.);
#1251 = DIRECTION('',(-1.,1.224646799147E-16,0.));
#1252 = PLANE('',#1253);
#1253 = AXIS2_PLACEMENT_3D('',#1254,#1255,#1256);
#1254 = CARTESIAN_POINT('',(-107.,-171.8,28.));
#1255 = DIRECTION('',(0.,0.,1.));
#1256 = DIRECTION('',(-1.,1.224646799147E-16,0.));
#1257 = ADVANCED_FACE('',(#1258,#1276),#1287,.T.);
#1258 = FACE_BOUND('',#1259,.T.);
#1259 = EDGE_LOOP('',(#1260,#1268,#1269,#1270));
#1260 = ORIENTED_EDGE('',*,*,#1261,.F.);
#1261 = EDGE_CURVE('',#1166,#1262,#1264,.T.);
#1262 = VERTEX_POINT('',#1263);
#1263 = CARTESIAN_POINT('',(-119.,-173.,10.));
#1264 = LINE('',#1265,#1266);
#1265 = CARTESIAN_POINT('',(-107.,-173.,10.));
#1266 = VECTOR('',#1267,1.);
#1267 = DIRECTION('',(-1.,1.224646799147E-16,0.));
#1268 = ORIENTED_EDGE('',*,*,#1173,.T.);
#1269 = ORIENTED_EDGE('',*,*,#1247,.T.);
#1270 = ORIENTED_EDGE('',*,*,#1271,.F.);
#1271 = EDGE_CURVE('',#1262,#1240,#1272,.T.);
#1272 = LINE('',#1273,#1274);
#1273 = CARTESIAN_POINT('',(-119.,-173.,10.));
#1274 = VECTOR('',#1275,1.);
#1275 = DIRECTION('',(0.,0.,1.));
#1276 = FACE_BOUND('',#1277,.T.);
#1277 = EDGE_LOOP('',(#1278));
#1278 = ORIENTED_EDGE('',*,*,#1279,.F.);
#1279 = EDGE_CURVE('',#1280,#1280,#1282,.T.);
#1280 = VERTEX_POINT('',#1281);
#1281 = CARTESIAN_POINT('',(-113.,-173.,17.5));
#1282 = CIRCLE('',#1283,2.);
#1283 = AXIS2_PLACEMENT_3D('',#1284,#1285,#1286);
#1284 = CARTESIAN_POINT('',(-113.,-173.,15.5));
#1285 = DIRECTION('',(-1.224646799147E-16,-1.,0.));
#1286 = DIRECTION('',(0.,0.,1.));
#1287 = PLANE('',#1288);
#1288 = AXIS2_PLACEMENT_3D('',#1289,#1290,#1291);
#1289 = CARTESIAN_POINT('',(-107.,-173.,10.));
#1290 = DIRECTION('',(-1.224646799147E-16,-1.,0.));
#1291 = DIRECTION('',(0.,0.,1.));
#1292 = ADVANCED_FACE('',(#1293),#1304,.F.);
#1293 = FACE_BOUND('',#1294,.F.);
#1294 = EDGE_LOOP('',(#1295,#1296,#1297,#1303));
#1295 = ORIENTED_EDGE('',*,*,#1165,.F.);
#1296 = ORIENTED_EDGE('',*,*,#1195,.T.);
#1297 = ORIENTED_EDGE('',*,*,#1298,.T.);
#1298 = EDGE_CURVE('',#1196,#1262,#1299,.T.);
#1299 = LINE('',#1300,#1301);
#1300 = CARTESIAN_POINT('',(-119.,-171.8,10.));
#1301 = VECTOR('',#1302,1.);
#1302 = DIRECTION('',(-1.224646799147E-16,-1.,0.));
#1303 = ORIENTED_EDGE('',*,*,#1261,.F.);
#1304 = PLANE('',#1305);
#1305 = AXIS2_PLACEMENT_3D('',#1306,#1307,#1308);
#1306 = CARTESIAN_POINT('',(-107.,-171.8,10.));
#1307 = DIRECTION('',(0.,0.,1.));
#1308 = DIRECTION('',(-1.,1.224646799147E-16,0.));
#1309 = ADVANCED_FACE('',(#1310),#1316,.T.);
#1310 = FACE_BOUND('',#1311,.T.);
#1311 = EDGE_LOOP('',(#1312,#1313,#1314,#1315));
#1312 = ORIENTED_EDGE('',*,*,#1212,.F.);
#1313 = ORIENTED_EDGE('',*,*,#1298,.T.);
#1314 = ORIENTED_EDGE('',*,*,#1271,.T.);
#1315 = ORIENTED_EDGE('',*,*,#1239,.F.);
#1316 = PLANE('',#1317);
#1317 = AXIS2_PLACEMENT_3D('',#1318,#1319,#1320);
#1318 = CARTESIAN_POINT('',(-119.,-171.8,10.));
#1319 = DIRECTION('',(-1.,1.224646799147E-16,0.));
#1320 = DIRECTION('',(0.,0.,1.));
#1321 = ADVANCED_FACE('',(#1322),#1333,.F.);
#1322 = FACE_BOUND('',#1323,.F.);
#1323 = EDGE_LOOP('',(#1324,#1325,#1331,#1332));
#1324 = ORIENTED_EDGE('',*,*,#1279,.F.);
#1325 = ORIENTED_EDGE('',*,*,#1326,.F.);
#1326 = EDGE_CURVE('',#1221,#1280,#1327,.T.);
#1327 = LINE('',#1328,#1329);
#1328 = CARTESIAN_POINT('',(-113.,-169.,17.5));
#1329 = VECTOR('',#1330,1.);
#1330 = DIRECTION('',(-1.224646799147E-16,-1.,0.));
#1331 = ORIENTED_EDGE('',*,*,#1220,.T.);
#1332 = ORIENTED_EDGE('',*,*,#1326,.T.);
#1333 = CYLINDRICAL_SURFACE('',#1334,2.);
#1334 = AXIS2_PLACEMENT_3D('',#1335,#1336,#1337);
#1335 = CARTESIAN_POINT('',(-113.,-169.,15.5));
#1336 = DIRECTION('',(-1.224646799147E-16,-1.,0.));
#1337 = DIRECTION('',(0.,0.,1.));
#1338 = MANIFOLD_SOLID_BREP('',#1339);
#1339 = CLOSED_SHELL('',(#1340,#1380,#1422,#1446,#1481,#1498,#1510));
#1340 = ADVANCED_FACE('',(#1341),#1375,.F.);
#1341 = FACE_BOUND('',#1342,.F.);
#1342 = EDGE_LOOP('',(#1343,#1353,#1361,#1369));
#1343 = ORIENTED_EDGE('',*,*,#1344,.F.);
#1344 = EDGE_CURVE('',#1345,#1347,#1349,.T.);
#1345 = VERTEX_POINT('',#1346);
#1346 = CARTESIAN_POINT('',(171.8,-107.,10.));
#1347 = VERTEX_POINT('',#1348);
#1348 = CARTESIAN_POINT('',(171.8,-107.,28.));
#1349 = LINE('',#1350,#1351);
#1350 = CARTESIAN_POINT('',(171.8,-107.,10.));
#1351 = VECTOR('',#1352,1.);
#1352 = DIRECTION('',(0.,0.,1.));
#1353 = ORIENTED_EDGE('',*,*,#1354,.T.);
#1354 = EDGE_CURVE('',#1345,#1355,#1357,.T.);
#1355 = VERTEX_POINT('',#1356);
#1356 = CARTESIAN_POINT('',(173.,-107.,10.));
#1357 = LINE('',#1358,#1359);
#1358 = CARTESIAN_POINT('',(171.8,-107.,10.));
#1359 = VECTOR('',#1360,1.);
#1360 = DIRECTION('',(1.,-2.22044604925E-16,0.));
#1361 = ORIENTED_EDGE('',*,*,#1362,.T.);
#1362 = EDGE_CURVE('',#1355,#1363,#1365,.T.);
#1363 = VERTEX_POINT('',#1364);
#1364 = CARTESIAN_POINT('',(173.,-107.,28.));
#1365 = LINE('',#1366,#1367);
#1366 = CARTESIAN_POINT('',(173.,-107.,10.));
#1367 = VECTOR('',#1368,1.);
#1368 = DIRECTION('',(0.,0.,1.));
#1369 = ORIENTED_EDGE('',*,*,#1370,.F.);
#1370 = EDGE_CURVE('',#1347,#1363,#1371,.T.);
#1371 = LINE('',#1372,#1373);
#1372 = CARTESIAN_POINT('',(171.8,-107.,28.));
#1373 = VECTOR('',#1374,1.);
#1374 = DIRECTION('',(1.,-2.22044604925E-16,0.));
#1375 = PLANE('',#1376);
#1376 = AXIS2_PLACEMENT_3D('',#1377,#1378,#1379);
#1377 = CARTESIAN_POINT('',(171.8,-107.,10.));
#1378 = DIRECTION('',(-2.22044604925E-16,-1.,0.));
#1379 = DIRECTION('',(0.,0.,1.));
#1380 = ADVANCED_FACE('',(#1381,#1406),#1417,.F.);
#1381 = FACE_BOUND('',#1382,.F.);
#1382 = EDGE_LOOP('',(#1383,#1391,#1392,#1400));
#1383 = ORIENTED_EDGE('',*,*,#1384,.F.);
#1384 = EDGE_CURVE('',#1345,#1385,#1387,.T.);
#1385 = VERTEX_POINT('',#1386);
#1386 = CARTESIAN_POINT('',(171.8,-119.,10.));
#1387 = LINE('',#1388,#1389);
#1388 = CARTESIAN_POINT('',(171.8,-107.,10.));
#1389 = VECTOR('',#1390,1.);
#1390 = DIRECTION('',(-2.22044604925E-16,-1.,0.));
#1391 = ORIENTED_EDGE('',*,*,#1344,.T.);
#1392 = ORIENTED_EDGE('',*,*,#1393,.T.);
#1393 = EDGE_CURVE('',#1347,#1394,#1396,.T.);
#1394 = VERTEX_POINT('',#1395);
#1395 = CARTESIAN_POINT('',(171.8,-119.,28.));
#1396 = LINE('',#1397,#1398);
#1397 = CARTESIAN_POINT('',(171.8,-107.,28.));
#1398 = VECTOR('',#1399,1.);
#1399 = DIRECTION('',(-2.22044604925E-16,-1.,0.));
#1400 = ORIENTED_EDGE('',*,*,#1401,.F.);
#1401 = EDGE_CURVE('',#1385,#1394,#1402,.T.);
#1402 = LINE('',#1403,#1404);
#1403 = CARTESIAN_POINT('',(171.8,-119.,10.));
#1404 = VECTOR('',#1405,1.);
#1405 = DIRECTION('',(0.,0.,1.));
#1406 = FACE_BOUND('',#1407,.F.);
#1407 = EDGE_LOOP('',(#1408));
#1408 = ORIENTED_EDGE('',*,*,#1409,.F.);
#1409 = EDGE_CURVE('',#1410,#1410,#1412,.T.);
#1410 = VERTEX_POINT('',#1411);
#1411 = CARTESIAN_POINT('',(171.8,-113.,17.5));
#1412 = CIRCLE('',#1413,2.);
#1413 = AXIS2_PLACEMENT_3D('',#1414,#1415,#1416);
#1414 = CARTESIAN_POINT('',(171.8,-113.,15.5));
#1415 = DIRECTION('',(1.,-2.22044604925E-16,0.));
#1416 = DIRECTION('',(0.,0.,1.));
#1417 = PLANE('',#1418);
#1418 = AXIS2_PLACEMENT_3D('',#1419,#1420,#1421);
#1419 = CARTESIAN_POINT('',(171.8,-107.,10.));
#1420 = DIRECTION('',(1.,-2.22044604925E-16,0.));
#1421 = DIRECTION('',(0.,0.,1.));
#1422 = ADVANCED_FACE('',(#1423),#1441,.T.);
#1423 = FACE_BOUND('',#1424,.T.);
#1424 = EDGE_LOOP('',(#1425,#1426,#1427,#1435));
#1425 = ORIENTED_EDGE('',*,*,#1370,.F.);
#1426 = ORIENTED_EDGE('',*,*,#1393,.T.);
#1427 = ORIENTED_EDGE('',*,*,#1428,.T.);
#1428 = EDGE_CURVE('',#1394,#1429,#1431,.T.);
#1429 = VERTEX_POINT('',#1430);
#1430 = CARTESIAN_POINT('',(173.,-119.,28.));
#1431 = LINE('',#1432,#1433);
#1432 = CARTESIAN_POINT('',(171.8,-119.,28.));
#1433 = VECTOR('',#1434,1.);
#1434 = DIRECTION('',(1.,-2.22044604925E-16,0.));
#1435 = ORIENTED_EDGE('',*,*,#1436,.F.);
#1436 = EDGE_CURVE('',#1363,#1429,#1437,.T.);
#1437 = LINE('',#1438,#1439);
#1438 = CARTESIAN_POINT('',(173.,-107.,28.));
#1439 = VECTOR('',#1440,1.);
#1440 = DIRECTION('',(-2.22044604925E-16,-1.,0.));
#1441 = PLANE('',#1442);
#1442 = AXIS2_PLACEMENT_3D('',#1443,#1444,#1445);
#1443 = CARTESIAN_POINT('',(171.8,-107.,28.));
#1444 = DIRECTION('',(0.,0.,1.));
#1445 = DIRECTION('',(-2.22044604925E-16,-1.,0.));
#1446 = ADVANCED_FACE('',(#1447,#1465),#1476,.T.);
#1447 = FACE_BOUND('',#1448,.T.);
#1448 = EDGE_LOOP('',(#1449,#1457,#1458,#1459));
#1449 = ORIENTED_EDGE('',*,*,#1450,.F.);
#1450 = EDGE_CURVE('',#1355,#1451,#1453,.T.);
#1451 = VERTEX_POINT('',#1452);
#1452 = CARTESIAN_POINT('',(173.,-119.,10.));
#1453 = LINE('',#1454,#1455);
#1454 = CARTESIAN_POINT('',(173.,-107.,10.));
#1455 = VECTOR('',#1456,1.);
#1456 = DIRECTION('',(-2.22044604925E-16,-1.,0.));
#1457 = ORIENTED_EDGE('',*,*,#1362,.T.);
#1458 = ORIENTED_EDGE('',*,*,#1436,.T.);
#1459 = ORIENTED_EDGE('',*,*,#1460,.F.);
#1460 = EDGE_CURVE('',#1451,#1429,#1461,.T.);
#1461 = LINE('',#1462,#1463);
#1462 = CARTESIAN_POINT('',(173.,-119.,10.));
#1463 = VECTOR('',#1464,1.);
#1464 = DIRECTION('',(0.,0.,1.));
#1465 = FACE_BOUND('',#1466,.T.);
#1466 = EDGE_LOOP('',(#1467));
#1467 = ORIENTED_EDGE('',*,*,#1468,.F.);
#1468 = EDGE_CURVE('',#1469,#1469,#1471,.T.);
#1469 = VERTEX_POINT('',#1470);
#1470 = CARTESIAN_POINT('',(173.,-113.,17.5));
#1471 = CIRCLE('',#1472,2.);
#1472 = AXIS2_PLACEMENT_3D('',#1473,#1474,#1475);
#1473 = CARTESIAN_POINT('',(173.,-113.,15.5));
#1474 = DIRECTION('',(1.,-2.22044604925E-16,0.));
#1475 = DIRECTION('',(0.,0.,1.));
#1476 = PLANE('',#1477);
#1477 = AXIS2_PLACEMENT_3D('',#1478,#1479,#1480);
#1478 = CARTESIAN_POINT('',(173.,-107.,10.));
#1479 = DIRECTION('',(1.,-2.22044604925E-16,0.));
#1480 = DIRECTION('',(0.,0.,1.));
#1481 = ADVANCED_FACE('',(#1482),#1493,.F.);
#1482 = FACE_BOUND('',#1483,.F.);
#1483 = EDGE_LOOP('',(#1484,#1485,#1486,#1492));
#1484 = ORIENTED_EDGE('',*,*,#1354,.F.);
#1485 = ORIENTED_EDGE('',*,*,#1384,.T.);
#1486 = ORIENTED_EDGE('',*,*,#1487,.T.);
#1487 = EDGE_CURVE('',#1385,#1451,#1488,.T.);
#1488 = LINE('',#1489,#1490);
#1489 = CARTESIAN_POINT('',(171.8,-119.,10.));
#1490 = VECTOR('',#1491,1.);
#1491 = DIRECTION('',(1.,-2.22044604925E-16,0.));
#1492 = ORIENTED_EDGE('',*,*,#1450,.F.);
#1493 = PLANE('',#1494);
#1494 = AXIS2_PLACEMENT_3D('',#1495,#1496,#1497);
#1495 = CARTESIAN_POINT('',(171.8,-107.,10.));
#1496 = DIRECTION('',(0.,0.,1.));
#1497 = DIRECTION('',(-2.22044604925E-16,-1.,0.));
#1498 = ADVANCED_FACE('',(#1499),#1505,.T.);
#1499 = FACE_BOUND('',#1500,.T.);
#1500 = EDGE_LOOP('',(#1501,#1502,#1503,#1504));
#1501 = ORIENTED_EDGE('',*,*,#1401,.F.);
#1502 = ORIENTED_EDGE('',*,*,#1487,.T.);
#1503 = ORIENTED_EDGE('',*,*,#1460,.T.);
#1504 = ORIENTED_EDGE('',*,*,#1428,.F.);
#1505 = PLANE('',#1506);
#1506 = AXIS2_PLACEMENT_3D('',#1507,#1508,#1509);
#1507 = CARTESIAN_POINT('',(171.8,-119.,10.));
#1508 = DIRECTION('',(-2.22044604925E-16,-1.,0.));
#1509 = DIRECTION('',(0.,0.,1.));
#1510 = ADVANCED_FACE('',(#1511),#1522,.F.);
#1511 = FACE_BOUND('',#1512,.F.);
#1512 = EDGE_LOOP('',(#1513,#1514,#1520,#1521));
#1513 = ORIENTED_EDGE('',*,*,#1468,.F.);
#1514 = ORIENTED_EDGE('',*,*,#1515,.F.);
#1515 = EDGE_CURVE('',#1410,#1469,#1516,.T.);
#1516 = LINE('',#1517,#1518);
#1517 = CARTESIAN_POINT('',(169.,-113.,17.5));
#1518 = VECTOR('',#1519,1.);
#1519 = DIRECTION('',(1.,-2.22044604925E-16,0.));
#1520 = ORIENTED_EDGE('',*,*,#1409,.T.);
#1521 = ORIENTED_EDGE('',*,*,#1515,.T.);
#1522 = CYLINDRICAL_SURFACE('',#1523,2.);
#1523 = AXIS2_PLACEMENT_3D('',#1524,#1525,#1526);
#1524 = CARTESIAN_POINT('',(169.,-113.,15.5));
#1525 = DIRECTION('',(1.,-2.22044604925E-16,0.));
#1526 = DIRECTION('',(0.,0.,1.));
#1527 = ( GEOMETRIC_REPRESENTATION_CONTEXT(3)
GLOBAL_UNCERTAINTY_ASSIGNED_CONTEXT((#1531))
GLOBAL_UNIT_ASSIGNED_CONTEXT((#1528,#1529,#1530)) REPRESENTATION_CONTEXT
('Context #1','3D Context with UNIT and UNCERTAINTY') );
#1528 = ( LENGTH_UNIT() NAMED_UNIT(*) SI_UNIT(.MILLI.,.METRE.) );
#1529 = ( NAMED_UNIT(*) PLANE_ANGLE_UNIT() SI_UNIT($,.RADIAN.) );
#1530 = ( NAMED_UNIT(*) SI_UNIT($,.STERADIAN.) SOLID_ANGLE_UNIT() );
#1531 = UNCERTAINTY_MEASURE_WITH_UNIT(LENGTH_MEASURE(1.E-07),#1528,
  'distance_accuracy_value','confusion accuracy');
#1532 = PRODUCT_RELATED_PRODUCT_CATEGORY('part',$,(#7));
ENDSEC;
END-ISO-10303-21;
